# xmcd CD database file
#
# Track frame offsets:
#	150
#	16263
#	30049
#	49919
#	70345
#	90278
#	105007
#	124064
#	146315
#	163818
#	179120
#	194556
#	221556
#	253056
#	269353
#	280075
#	289450
#	301527
#	304868
#	323240
#
# Disc length: 4587 seconds
#
# Revision: 0
# Processed by: cddbd v1.5.1PL2 Copyright (c) Steve Scherf et al.
# Submitted via: Feurio! 1.68 - http://www.feurio.com
#
DISCID=1b11e914
DTITLE=Various Artist - Bauer, Garn and Dyke and Kalaidoskop Band
DYEAR=1900
DGENRE=
TTITLE0=Bauer, Garn and Dyke - Laubfrosch Blues
TTITLE1=Bauer, Garn and Dyke - Sturmfrei
TTITLE2=Bauer, Garn and Dyke - Lock 'n' Loll
TTITLE3=Bauer, Garn and Dyke - Ich hau ab
TTITLE4=Bauer, Garn and Dyke - Sibirien Bär
TTITLE5=Bauer, Garn and Dyke - Guitar Man
TTITLE6=Bauer, Garn and Dyke - Da ha ick Bock druff
TTITLE7=Bauer, Garn and Dyke - Haltestellen Blues
TTITLE8=Bauer, Garn and Dyke - Billie
TTITLE9=Bauer, Garn and Dyke - Ich hab Lust, Baby
TTITLE10=Kaleidoskop Band - Kokie Okie
TTITLE11=Kaleidoskop Band - Tiger
TTITLE12=Kaleidoskop Band - Übermut Blues
TTITLE13=Kaleidoskop Band - Übermut Blues
TTITLE14=Kaleidoskop Band - Concentration Moon
TTITLE15=Kaleidoskop Band - Mercy Mercy
TTITLE16=Kaleidoskop Band - Lila Rock'n'Roll
TTITLE17=Kaleidoskop Band - Mercy Mercy
TTITLE18=Kaleidoskop Band - Stadtwolf
TTITLE19=Kaleidoskop Band - Rock'n'Roll Mami
EXTD=
EXTT0=
EXTT1=
EXTT2=
EXTT3=
EXTT4=
EXTT5=
EXTT6=
EXTT7=
EXTT8=
EXTT9=
EXTT10=
EXTT11=
EXTT12=
EXTT13=
EXTT14=
EXTT15=
EXTT16=
EXTT17=
EXTT18=
EXTT19=
PLAYORDER=
